<?xml version="1.0" standalone="no"?><!DOCTYPE svg PUBLIC "-//W3C//DTD SVG 1.1//EN" "http://www.w3.org/Graphics/SVG/1.1/DTD/svg11.dtd"><svg t="1773380298867" class="icon" viewBox="0 0 1024 1024" version="1.1" xmlns="http://www.w3.org/2000/svg" p-id="18749" xmlns:xlink="http://www.w3.org/1999/xlink" width="200" height="200"><path d="M512 0C229.2 0 0 229.2 0 512s229.2 512 512 512 512-229.2 512-512S794.8 0 512 0z m0 734.6c-123 0-222.6-99.6-222.6-222.6S389 289.4 512 289.4 734.6 389 734.6 512 635 734.6 512 734.6z" fill="#F0F0F0" p-id="18750"></path><path d="M512 512m-222.6 0a222.6 222.6 0 1 0 445.2 0 222.6 222.6 0 1 0-445.2 0Z" fill="#D80027" p-id="18751"></path></svg>